<svg xmlns="http://www.w3.org/2000/svg" xmlns:xlink="http://www.w3.org/1999/xlink" width="410" height="409.999" viewBox="0 0 410 409.999"><defs><style>.a{fill:url(#a);}.b{fill:#3a3973;}.c{fill:url(#b);}.d{fill:url(#c);}.e{fill:#4f0000;}.f{fill:url(#d);}.g{fill:url(#e);}.h{fill:url(#g);}.i{fill:url(#h);}.j{fill:url(#i);}.k{fill:url(#j);}.l{fill:url(#k);}</style><linearGradient id="a" x1="1" y1="1" x2="0.293" y2="0.103" gradientUnits="objectBoundingBox"><stop offset="0" stop-color="#ffe8a3"/><stop offset="0.5" stop-color="#ffca05"/><stop offset="1" stop-color="#faac18"/></linearGradient><linearGradient id="b" x1="0" y1="1" x2="0.707" y2="0.103" xlink:href="#a"/><linearGradient id="c" x1="-0.092" y1="0.823" x2="0.842" y2="-0.013" gradientUnits="objectBoundingBox"><stop offset="0" stop-color="#f37f5f"/><stop offset="0.5" stop-color="#ec1c24"/><stop offset="1" stop-color="#d0232a"/></linearGradient><linearGradient id="d" x1="0" y1="0.5" x2="1" y2="0.5" xlink:href="#c"/><linearGradient id="e" x1="0" y1="0.5" x2="1" y2="0.5" xlink:href="#a"/><linearGradient id="g" x1="1" y1="0.5" x2="0" y2="0.5" xlink:href="#a"/><linearGradient id="h" x1="-0.092" y1="0.177" x2="0.842" y2="1.013" xlink:href="#c"/><linearGradient id="i" x1="0" y1="0" x2="0.707" y2="0.897" xlink:href="#a"/><linearGradient id="j" x1="1" y1="0.5" x2="0" y2="0.5" xlink:href="#c"/><linearGradient id="k" x1="1" y1="0" x2="0.293" y2="0.897" xlink:href="#a"/></defs><g transform="translate(58.354 6.333)"><path class="a" d="M-258.721,1716.377a201.743,201.743,0,0,0-90.775,52.481l143.21,143.21Z" transform="translate(352.932 -1713.402)"/><path class="b" d="M-202.143,1919.722-353.485,1768.38l1.719-1.719A205.043,205.043,0,0,1-259.9,1713.55l2.347-.627ZM-346.6,1768.391l135.067,135.067-49.456-184.57A200.179,200.179,0,0,0-346.6,1768.391Z" transform="translate(353.485 -1712.923)"/></g><g transform="translate(200.305 6.333)"><path class="c" d="M-40.044,1768.858a201.744,201.744,0,0,0-90.775-52.481l-52.435,195.692Z" transform="translate(187.949 -1713.402)"/><path class="b" d="M-37.362,1768.38-188.7,1919.722l55.411-206.8,2.347.628a205.044,205.044,0,0,1,91.866,53.11Zm-141.951,135.078L-44.247,1768.39a200.188,200.188,0,0,0-85.612-49.5Z" transform="translate(188.704 -1712.923)"/></g><g transform="translate(149.588)"><path class="d" d="M-139.252,1715.27a203.251,203.251,0,0,0-104.87,0l52.435,195.692Z" transform="translate(247.099 -1705.962)"/><path class="e" d="M-192.166,1919.961l-55.412-206.8,2.349-.628a205.74,205.74,0,0,1,106.126,0l2.349.627-.63,2.349Zm-49.455-203.347,49.455,184.567,49.454-184.567A200.908,200.908,0,0,0-241.621,1716.614Z" transform="translate(247.578 -1705.571)"/></g><g transform="translate(196.868 200.305)"><path class="f" d="M-40.044,2086.75a201.745,201.745,0,0,0,52.482-90.776l-195.692-52.433Z" transform="translate(191.386 -1938.846)"/><path class="b" d="M-39.633,2087.714l-1.719,1.719-151.342-151.341,206.8,55.41-.627,2.347A205.046,205.046,0,0,1-39.633,2087.714Zm-136.8-140.233,135.068,135.067a200.18,200.18,0,0,0,49.5-85.613Z" transform="translate(192.694 -1938.091)"/></g><g transform="translate(195.61 149.587)"><path class="g" d="M12.438,1987.541a203.244,203.244,0,0,0,0-104.869l-195.692,52.436Z" transform="translate(192.644 -1879.695)"/><path class="e" d="M12.648,1990.04l-206.8-55.411,206.8-55.413.628,2.349a205.743,205.743,0,0,1,0,106.125Zm-188.021-55.411L9.193,1984.083a200.908,200.908,0,0,0,0-98.909Z" transform="translate(194.154 -1879.216)"/></g><g transform="translate(196.868 58.354)"><path class="f" d="M12.438,1868.073A201.743,201.743,0,0,0-40.044,1777.3l-143.21,143.21Z" transform="translate(191.386 -1773.863)"/><path class="e" d="M14.105,1869.24l-2.347.628-204.453,54.783L-41.352,1773.31l1.719,1.718a205.052,205.052,0,0,1,53.11,91.865Zm-190.535,46.021L8.14,1865.806a200.182,200.182,0,0,0-49.5-85.612Z" transform="translate(192.694 -1773.31)"/></g><g transform="translate(0 149.588)"><path class="h" d="M-411.525,1882.672a203.25,203.25,0,0,0,0,104.871l195.692-52.435Z" transform="translate(420.833 -1879.696)"/><path class="b" d="M-206.833,1934.629l-206.8,55.412-.628-2.349a205.741,205.741,0,0,1,0-106.127l.628-2.348Zm-203.348,49.455,184.568-49.455-184.568-49.455A200.914,200.914,0,0,0-410.181,1984.084Z" transform="translate(421.224 -1879.217)"/></g><g transform="translate(149.587 195.609)"><path class="i" d="M-244.122,2139.233a203.248,203.248,0,0,0,104.87,0l-52.435-195.692Z" transform="translate(247.1 -1934.15)"/><path class="b" d="M-136.754,2139.442l-2.349.628a205.735,205.735,0,0,1-106.126,0l-2.35-.628.631-2.348,54.783-204.453Zm-104.868-3.454a200.929,200.929,0,0,0,98.91,0l-49.454-184.567Z" transform="translate(247.579 -1932.64)"/></g><g transform="translate(200.305 196.868)"><path class="j" d="M-183.254,1943.541l52.435,195.692a201.76,201.76,0,0,0,90.775-52.482Z" transform="translate(187.949 -1935.409)"/><path class="e" d="M-37.362,2085.443l-1.719,1.718a205.052,205.052,0,0,1-91.866,53.111l-2.347.627L-188.7,1934.1Zm-92.5,49.491a200.184,200.184,0,0,0,85.612-49.5l-135.067-135.067Z" transform="translate(188.704 -1934.101)"/></g><g transform="translate(6.333 200.305)"><path class="k" d="M-410.418,1995.976a201.744,201.744,0,0,0,52.482,90.774l143.21-143.209Z" transform="translate(413.393 -1938.846)"/><path class="e" d="M-207.073,1938.091l-151.341,151.341-1.719-1.719a205.037,205.037,0,0,1-53.111-91.865l-.628-2.347,2.347-.629ZM-358.4,2082.548l135.067-135.068-184.569,49.455A200.178,200.178,0,0,0-358.4,2082.548Z" transform="translate(413.872 -1938.091)"/></g><g transform="translate(58.354 196.868)"><path class="l" d="M-349.5,2086.75a201.76,201.76,0,0,0,90.775,52.482l52.435-195.692Z" transform="translate(352.932 -1935.409)"/><path class="e" d="M-257.555,2140.9l-2.347-.628a205.036,205.036,0,0,1-91.865-53.111l-1.719-1.718L-202.143,1934.1Zm-89.046-55.468a200.191,200.191,0,0,0,85.612,49.5l49.455-184.569Z" transform="translate(353.485 -1934.101)"/></g><g transform="translate(6.333 58.354)"><path class="k" d="M-357.936,1777.3a201.743,201.743,0,0,0-52.482,90.774l195.692,52.436Z" transform="translate(413.393 -1773.863)"/><path class="e" d="M-207.073,1924.651l-206.8-55.412.627-2.347a205.056,205.056,0,0,1,53.112-91.865l1.719-1.718Zm-200.834-58.846,184.57,49.456L-358.4,1780.194A200.192,200.192,0,0,0-407.907,1865.805Z" transform="translate(413.872 -1773.31)"/></g></svg>