<svg xmlns="http://www.w3.org/2000/svg" xmlns:xlink="http://www.w3.org/1999/xlink" viewBox="0 0 1920 1080"><defs><style>.cls-1,.cls-3{mask:url(#mask);}.cls-1{filter:url(#luminosity-noclip-3);}.cls-2,.cls-4{mix-blend-mode:multiply;}.cls-2{fill:url(#radial-gradient);}.cls-3{filter:url(#luminosity-noclip-4);}.cls-4{fill:url(#radial-gradient-2);}.cls-5{isolation:isolate;}.cls-6{fill:url(#Autumn_Crimson);}.cls-7{mask:url(#mask-3);}.cls-8{mix-blend-mode:hard-light;fill:url(#radial-gradient-3);}.cls-9{mask:url(#mask-4);}.cls-10{opacity:0.1;fill:url(#radial-gradient-4);}.cls-11{filter:url(#luminosity-noclip);}</style><filter id="luminosity-noclip" x="0" y="-8732" width="1920" height="32766" filterUnits="userSpaceOnUse" color-interpolation-filters="sRGB"><feFlood flood-color="#fff" result="bg"/><feBlend in="SourceGraphic" in2="bg"/></filter><mask id="mask" x="0" y="-8732" width="1920" height="32766" maskUnits="userSpaceOnUse"><g class="cls-11"/></mask><radialGradient id="radial-gradient" cx="2147.04" cy="506.43" r="737.92" gradientTransform="translate(-1984.51 -18.1) scale(1.37 1.1)" gradientUnits="userSpaceOnUse"><stop offset="0" stop-color="#fff"/><stop offset="0.12" stop-color="#d1d1d1"/><stop offset="0.3" stop-color="#929292"/><stop offset="0.48" stop-color="#5e5e5e"/><stop offset="0.64" stop-color="#353535"/><stop offset="0.78" stop-color="#181818"/><stop offset="0.91" stop-color="#060606"/><stop offset="1"/></radialGradient><radialGradient id="radial-gradient-2" cx="662.54" cy="511.44" r="927" gradientTransform="translate(51.37 -23.62) scale(1.37 1.1)" gradientUnits="userSpaceOnUse"><stop offset="0" stop-color="#fff"/><stop offset="1"/></radialGradient><linearGradient id="Autumn_Crimson" x1="1008.4" y1="1491.92" x2="925.13" y2="-145.83" gradientUnits="userSpaceOnUse"><stop offset="0" stop-color="#ac6865"/><stop offset="0.02" stop-color="#ab6563"/><stop offset="0.5" stop-color="#932e40"/><stop offset="0.74" stop-color="#793142"/><stop offset="1" stop-color="#623343"/></linearGradient><filter id="luminosity-noclip-3" x="0" y="0" width="1920" height="1080" filterUnits="userSpaceOnUse" color-interpolation-filters="sRGB"><feFlood flood-color="#fff" result="bg"/><feBlend in="SourceGraphic" in2="bg"/></filter><mask id="mask-3" x="0" y="0" width="1920" height="1080" maskUnits="userSpaceOnUse"><g class="cls-1"><rect class="cls-2" width="1920" height="1080"/></g></mask><radialGradient id="radial-gradient-3" cx="2147.04" cy="506.43" r="737.92" gradientTransform="translate(-1984.51 -18.1) scale(1.37 1.1)" gradientUnits="userSpaceOnUse"><stop offset="0" stop-color="#ec1e24"/><stop offset="1" stop-color="#ec1e24"/></radialGradient><mask id="mask-4" x="0" y="0" width="1920" height="1080" maskUnits="userSpaceOnUse"><g class="cls-3"><polygon class="cls-4" points="1920 494.28 1060.94 529.29 1920 380.75 1920 283.17 1055 508.34 1920 152.7 1920 33.03 1040.75 490.17 1714.82 0 1555.1 0 1022.58 474.41 1404.56 0 1294.62 0 998.92 464.4 1185.11 0 1095.07 0 973.38 458.06 1002.29 0 917.71 0 946.67 458.89 823.79 0 733.69 0 920.6 463.66 625.38 0 515.44 0 897.99 475.11 362.94 0 202.74 0 878.38 489.72 0 33.03 0 152.7 865.92 508.72 0 284.55 0 382.06 858.03 529.25 0 494.28 0 585.72 859.06 550.71 0 699.25 0 796.83 865 571.66 0 927.3 0 1046.97 879.25 589.83 205.19 1080 364.9 1080 897.42 605.59 515.44 1080 625.38 1080 921.08 615.6 734.89 1080 824.93 1080 946.62 621.94 917.71 1080 1002.29 1080 973.33 621.11 1096.2 1080 1186.31 1080 999.39 616.34 1294.62 1080 1404.56 1080 1022.01 604.89 1557.06 1080 1717.26 1080 1041.62 590.28 1920 1046.97 1920 927.3 1054.08 571.28 1920 795.45 1920 697.94 1061.97 550.75 1920 585.72 1920 494.28"/></g></mask><radialGradient id="radial-gradient-4" cx="662.54" cy="511.44" r="927" gradientTransform="translate(51.37 -23.62) scale(1.37 1.1)" gradientUnits="userSpaceOnUse"><stop offset="0" stop-color="#fff"/><stop offset="1" stop-color="#fff"/></radialGradient></defs><title>bg0</title><g class="cls-5"><g id="Layer_2" data-name="Layer 2"><g id="Layer_1-2" data-name="Layer 1"><rect class="cls-6" width="1920" height="1080"/><g class="cls-7"><rect class="cls-8" width="1920" height="1080"/></g><g class="cls-9"><polygon class="cls-10" points="1920 494.28 1060.94 529.29 1920 380.75 1920 283.17 1055 508.34 1920 152.7 1920 33.03 1040.75 490.17 1714.82 0 1555.1 0 1022.58 474.41 1404.56 0 1294.62 0 998.92 464.4 1185.11 0 1095.07 0 973.38 458.06 1002.29 0 917.71 0 946.67 458.89 823.79 0 733.69 0 920.6 463.66 625.38 0 515.44 0 897.99 475.11 362.94 0 202.74 0 878.38 489.72 0 33.03 0 152.7 865.92 508.72 0 284.55 0 382.06 858.03 529.25 0 494.28 0 585.72 859.06 550.71 0 699.25 0 796.83 865 571.66 0 927.3 0 1046.97 879.25 589.83 205.19 1080 364.9 1080 897.42 605.59 515.44 1080 625.38 1080 921.08 615.6 734.89 1080 824.93 1080 946.62 621.94 917.71 1080 1002.29 1080 973.33 621.11 1096.2 1080 1186.31 1080 999.39 616.34 1294.62 1080 1404.56 1080 1022.01 604.89 1557.06 1080 1717.26 1080 1041.62 590.28 1920 1046.97 1920 927.3 1054.08 571.28 1920 795.45 1920 697.94 1061.97 550.75 1920 585.72 1920 494.28"/></g></g></g></g></svg>